<?xml version="1.0" encoding="utf-8"?>
<!-- Generator: Adobe Illustrator 26.0.3, SVG Export Plug-In . SVG Version: 6.00 Build 0)  -->
<svg version="1.1" id="Layer_1" xmlns="http://www.w3.org/2000/svg" xmlns:xlink="http://www.w3.org/1999/xlink" x="0px" y="0px"
	 viewBox="0 0 100 100" style="enable-background:new 0 0 100 100;" xml:space="preserve">
<style type="text/css">
	.st0{fill:url(#SVGID_1_);}
	.st1{opacity:0.3;fill:#FFFFFF;enable-background:new    ;}
	.st2{fill:#D31027;}
</style>
<g>
	
		<linearGradient id="SVGID_1_" gradientUnits="userSpaceOnUse" x1="49.775" y1="99.6153" x2="49.775" y2="3.3669" gradientTransform="matrix(1 0 0 -1 0 100)">
		<stop  offset="5.586590e-03" style="stop-color:#93291E"/>
		<stop  offset="0.2406" style="stop-color:#A32320"/>
		<stop  offset="1" style="stop-color:#D31027"/>
	</linearGradient>
	<path class="st0" d="M44.42,98.17l-33.61-19.4c-3.31-1.91-5.36-5.45-5.36-9.28V30.68c0-3.83,2.04-7.36,5.36-9.28L44.42,2
		c3.31-1.91,7.4-1.91,10.71,0l33.61,19.4c3.31,1.91,5.36,5.45,5.36,9.28v38.81c0,3.83-2.04,7.36-5.36,9.28l-33.61,19.4
		C51.81,100.08,47.73,100.08,44.42,98.17z M22.74,71.88l21.67,12.51c3.31,1.91,7.4,1.91,10.71,0L76.8,71.88
		c3.31-1.91,5.36-5.45,5.36-9.28V37.57c0-3.83-2.04-7.36-5.36-9.28L55.13,15.78c-3.31-1.91-7.4-1.91-10.71,0L22.74,28.3
		c-3.31,1.91-5.36,5.45-5.36,9.28V62.6C17.39,66.43,19.43,69.96,22.74,71.88z"/>
	<path class="st1" d="M94.09,30.68c0-3.83-2.04-7.36-5.36-9.28L55.13,2c-3.31-1.91-7.4-1.91-10.71,0L10.81,21.4
		c-3.31,1.91-5.36,5.45-5.36,9.28v2.29c3.38,4.2,7.33,8.32,11.93,12.13v-7.53c0-3.83,2.04-7.36,5.36-9.28l21.67-12.51
		c3.31-1.91,7.4-1.91,10.71,0L76.8,28.3c3.31,1.91,5.36,5.45,5.36,9.28V62.6c0,1.18-0.2,2.33-0.56,3.41c4,0.02,8.16-0.13,12.49-0.46
		C94.09,65.55,94.09,30.68,94.09,30.68z"/>
	<path class="st2" d="M60.44,73.74c-3.97,0-7.19-3.23-7.19-7.19c0-0.58,0.07-1.17,0.22-1.74l-17.9-10.33
		c-1.36,1.79-3.45,2.85-5.72,2.85c-3.97,0-7.19-3.23-7.19-7.19c0-3.97,3.23-7.19,7.19-7.19c2.27,0,4.36,1.05,5.72,2.85l17.9-10.33
		c-0.14-0.57-0.22-1.15-0.22-1.74c0-3.97,3.23-7.19,7.19-7.19s7.19,3.23,7.19,7.19c0,3.97-3.23,7.19-7.19,7.19
		c-2.09,0-4.07-0.92-5.44-2.5L36.92,48.85c0.08,0.43,0.12,0.86,0.12,1.28s-0.04,0.85-0.12,1.28l18.09,10.44
		c1.36-1.57,3.35-2.5,5.44-2.5c3.97,0,7.19,3.23,7.19,7.19S64.41,73.74,60.44,73.74z M60.44,62.69c-2.13,0-3.86,1.73-3.86,3.86
		s1.73,3.86,3.86,3.86s3.86-1.73,3.86-3.86S62.57,62.69,60.44,62.69z M29.85,46.27c-2.13,0-3.86,1.73-3.86,3.86s1.73,3.86,3.86,3.86
		s3.86-1.73,3.86-3.86S31.98,46.27,29.85,46.27z M60.44,29.85c-2.13,0-3.86,1.73-3.86,3.86s1.73,3.86,3.86,3.86s3.86-1.73,3.86-3.86
		C64.3,31.58,62.57,29.85,60.44,29.85z"/>
</g>
</svg>
