<?xml version="1.0" encoding="utf-8"?>
<!-- Generator: Adobe Illustrator 26.0.3, SVG Export Plug-In . SVG Version: 6.00 Build 0)  -->
<svg version="1.1" xmlns="http://www.w3.org/2000/svg" xmlns:xlink="http://www.w3.org/1999/xlink" x="0px" y="0px"
	 viewBox="0 0 1920 1080" style="enable-background:new 0 0 1920 1080;" xml:space="preserve">
<style type="text/css">
	.st0{fill:url(#SVGID_1_);}
	.st1{opacity:0.3;fill:#FFFFFF;}
	.st2{fill:#D31027;}
	.st3{fill:#333333;}
	.st4{display:none;}
	.st5{display:inline;}
</style>
<g id="Logo">
	<g>
		<g>
			<linearGradient id="SVGID_1_" gradientUnits="userSpaceOnUse" x1="578.0901" y1="138.5109" x2="578.0901" y2="916.0137">
				<stop  offset="5.586592e-03" style="stop-color:#93291E"/>
				<stop  offset="0.2406" style="stop-color:#A32320"/>
				<stop  offset="1" style="stop-color:#D31027"/>
			</linearGradient>
			<path class="st0" d="M534.83,928.41L263.35,771.67c-26.77-15.46-43.26-44.02-43.26-74.94V383.26c0-30.91,16.49-59.48,43.26-74.94
				l271.47-156.73c26.77-15.46,59.76-15.46,86.53,0l271.47,156.73c26.77,15.46,43.26,44.02,43.26,74.94v313.47
				c0,30.91-16.49,59.48-43.26,74.94L621.36,928.41C594.58,943.86,561.6,943.86,534.83,928.41z M359.74,716.02L534.83,817.1
				c26.77,15.46,59.76,15.46,86.53,0l175.08-101.08c26.77-15.46,43.26-44.02,43.26-74.94V438.92c0-30.91-16.49-59.48-43.26-74.94
				L621.36,262.9c-26.77-15.46-59.76-15.46-86.53,0L359.74,363.98c-26.77,15.46-43.27,44.02-43.27,74.94v202.17
				C316.48,672,332.97,700.56,359.74,716.02z"/>
			<path class="st1" d="M936.09,383.26c0-30.91-16.49-59.48-43.26-74.94L621.36,151.59c-26.77-15.46-59.76-15.46-86.53,0
				L263.35,308.33c-26.77,15.46-43.26,44.02-43.26,74.94v18.49c27.32,33.96,59.22,67.17,96.39,98.01v-60.85
				c0-30.91,16.49-59.48,43.26-74.94L534.83,262.9c26.77-15.46,59.76-15.46,86.53,0l175.08,101.08
				c26.77,15.46,43.27,44.02,43.27,74.94v202.17c0,9.52-1.58,18.81-4.52,27.57c32.29,0.12,65.9-1.07,100.91-3.71V383.26z"/>
			<path class="st2" d="M664.3,731.12c-32.05,0-58.12-26.07-58.12-58.12c0-4.71,0.59-9.41,1.75-14.03l-144.58-83.48
				c-10.98,14.49-27.88,22.99-46.21,22.99c-32.05,0-58.12-26.07-58.12-58.12c0-32.05,26.07-58.12,58.12-58.12
				c18.33,0,35.23,8.5,46.21,22.99l144.57-83.48c-1.16-4.62-1.75-9.32-1.75-14.02c0-32.05,26.07-58.12,58.12-58.12
				c32.05,0,58.12,26.07,58.12,58.12s-26.07,58.12-58.12,58.12c-16.85,0-32.92-7.45-43.92-20.17L474.3,530.03
				c0.65,3.48,0.97,6.93,0.97,10.32c0,3.39-0.33,6.85-0.97,10.33l146.1,84.36c11-12.7,27.06-20.16,43.91-20.16
				c32.05,0,58.12,26.07,58.12,58.12C722.42,705.05,696.35,731.12,664.3,731.12z M664.3,641.83c-17.19,0-31.17,13.98-31.17,31.17
				s13.98,31.17,31.17,31.17c17.19,0,31.17-13.98,31.17-31.17S681.49,641.83,664.3,641.83z M417.15,509.19
				c-17.19,0-31.17,13.98-31.17,31.17c0,17.19,13.98,31.17,31.17,31.17c17.19,0,31.17-13.98,31.17-31.17
				C448.32,523.17,434.34,509.19,417.15,509.19z M664.3,376.56c-17.19,0-31.17,13.98-31.17,31.17s13.98,31.17,31.17,31.17
				c17.19,0,31.17-13.98,31.17-31.17S681.49,376.56,664.3,376.56z"/>
		</g>
		<path class="st3" d="M1120.8,715.8c-4.22,5.5-10.06,9.66-17.53,12.49c-7.47,2.83-15.96,4.24-25.45,4.24
			c-9.77,0-18.41-2.21-25.94-6.64c-7.52-4.43-13.33-10.77-17.41-19.01c-4.08-8.24-6.2-17.86-6.36-28.86v-9.12
			c0-17.61,4.21-31.36,12.65-41.26c8.43-9.9,20.2-14.85,35.3-14.85c12.97,0,23.27,3.22,30.9,9.65c7.63,6.43,12.22,15.68,13.77,27.74
			h-19.85c-2.24-14.03-10.38-21.05-24.41-21.05c-9.07,0-15.97,3.26-20.69,9.8c-4.72,6.53-7.16,16.12-7.32,28.75v8.96
			c0,12.58,2.65,22.35,7.96,29.31c5.31,6.96,12.69,10.44,22.13,10.44c10.35,0,17.72-2.35,22.09-7.04v-22.81h-24.01v-15.37h44.18
			V715.8z M1193.07,662.09c-2.56-0.43-5.2-0.64-7.92-0.64c-8.91,0-14.92,3.42-18.01,10.25v59.23h-19.45v-86.61h18.57l0.48,9.69
			c4.7-7.52,11.21-11.29,19.53-11.29c2.77,0,5.07,0.37,6.88,1.12L1193.07,662.09z M1261.26,730.93c-0.85-1.65-1.6-4.35-2.24-8.08
			c-6.19,6.46-13.77,9.69-22.73,9.69c-8.7,0-15.8-2.48-21.29-7.44c-5.5-4.96-8.25-11.1-8.25-18.41c0-9.23,3.43-16.32,10.29-21.25
			c6.86-4.93,16.66-7.4,29.42-7.4h11.93v-5.68c0-4.48-1.25-8.07-3.76-10.76c-2.51-2.69-6.32-4.04-11.45-4.04
			c-4.43,0-8.06,1.11-10.89,3.32c-2.83,2.21-4.24,5.03-4.24,8.44h-19.45c0-4.75,1.57-9.19,4.72-13.33
			c3.15-4.13,7.43-7.38,12.85-9.73c5.42-2.35,11.46-3.52,18.13-3.52c10.14,0,18.22,2.55,24.25,7.64c6.03,5.1,9.13,12.26,9.29,21.49
			v39.06c0,7.79,1.09,14.01,3.28,18.65v1.36H1261.26z M1239.89,716.92c3.84,0,7.46-0.93,10.85-2.8c3.39-1.87,5.94-4.37,7.64-7.52
			v-16.33h-10.49c-7.2,0-12.62,1.25-16.25,3.76c-3.63,2.51-5.44,6.06-5.44,10.65c0,3.73,1.24,6.71,3.72,8.92
			C1232.41,715.82,1235.73,716.92,1239.89,716.92z M1380.6,688.51c0,13.4-3.04,24.08-9.13,32.06c-6.08,7.98-14.25,11.97-24.49,11.97
			c-9.5,0-17.1-3.12-22.81-9.37v41.06h-19.45V644.32h17.93l0.8,8.81c5.71-6.94,13.47-10.41,23.29-10.41
			c10.57,0,18.85,3.94,24.85,11.81c6,7.87,9,18.8,9,32.78V688.51z M1361.23,686.83c0-8.64-1.72-15.5-5.16-20.57
			c-3.44-5.07-8.36-7.61-14.77-7.61c-7.95,0-13.66,3.28-17.13,9.85v38.42c3.52,6.72,9.28,10.09,17.29,10.09
			c6.19,0,11.03-2.49,14.53-7.48C1359.48,704.53,1361.23,696.97,1361.23,686.83z M1422.78,653.77c6.35-7.36,14.38-11.05,24.09-11.05
			c18.46,0,27.83,10.54,28.1,31.62v56.59h-19.45v-55.87c0-5.98-1.29-10.2-3.88-12.69c-2.59-2.48-6.39-3.72-11.4-3.72
			c-7.79,0-13.61,3.47-17.45,10.41v61.87h-19.45V607.98h19.45V653.77z M1599.1,675.7c0,11.05-1.75,20.61-5.24,28.7
			c-3.49,8.08-8.39,14.5-14.69,19.25l20.01,15.61l-13.13,11.85l-24.81-19.61c-3.26,0.69-6.75,1.04-10.49,1.04
			c-9.39,0-17.78-2.31-25.17-6.92c-7.39-4.61-13.1-11.19-17.13-19.73c-4.03-8.54-6.07-18.38-6.12-29.54v-6.56
			c0-11.37,2.01-21.4,6.04-30.1c4.03-8.7,9.71-15.35,17.05-19.97c7.34-4.61,15.73-6.92,25.17-6.92c9.6,0,18.08,2.28,25.41,6.84
			c7.34,4.56,13.01,11.13,17.01,19.69c4,8.57,6.03,18.53,6.08,29.9V675.7z M1578.77,669.62c0-13.13-2.45-23.08-7.36-29.86
			c-4.91-6.78-11.85-10.17-20.81-10.17c-8.7,0-15.52,3.43-20.45,10.29c-4.94,6.86-7.46,16.53-7.57,29.02v6.8
			c0,12.59,2.47,22.44,7.4,29.54c4.94,7.1,11.86,10.65,20.77,10.65c9.02,0,15.94-3.41,20.77-10.25c4.83-6.83,7.24-16.81,7.24-29.94
			V669.62z M1646.48,714.76h52.91v16.17h-73.16V614.39h20.25V714.76z"/>
		<path class="st2" d="M1030.26,349.7h71.39c34.22,0,55.46,6.2,67.56,15.64c18.29,14.16,26.55,35.7,26.55,59.59
			c0,16.82-4.72,29.8-10.92,39.53c-7.38,11.51-18,18.88-28.32,23.31l45.14,80.24h-57.53l-56.94-105.32h9.14
			c14.16,0,26.26-1.18,33.63-5.9c6.78-4.43,12.39-14.75,12.39-26.85c0-11.5-5.61-20.65-12.98-25.37c-6.19-3.84-15.04-5.9-22.71-5.9
			h-20.65V568h-55.76V349.7z M1387.81,568h-48.97v-17.7c-8.85,15.93-29.21,23.3-48.38,23.3c-51.92,0-82.31-40.71-82.31-87.62
			c0-53.69,38.65-87.32,82.31-87.32c26.85,0,41.89,12.98,48.38,23.01v-17.4h48.97V568z M1257.12,486.87
			c0,15.04,11.21,41.01,40.71,41.01c17.41,0,28.03-8.26,34.22-18.29c4.13-6.49,6.19-13.57,6.79-20.95
			c0.59-7.38-0.89-14.75-4.13-21.54c-5.31-11.21-16.52-22.71-37.17-22.71c-28.03,0-40.42,23.6-40.42,42.18V486.87z M1418.48,349.7
			h48.97v37.17h-48.97V349.7z M1418.48,404.27h48.97V568h-48.97V404.27z M1497.84,349.7h48.97V568h-48.97V349.7z M1646.81,450.29
			c-0.29-3.54-0.88-12.39-15.34-12.39c-10.32,0-13.86,6.49-13.86,10.91c0,7.38,12.1,12.39,25.07,16.23
			c27.73,7.67,57.23,15.93,57.23,51.33c0,35.99-30.39,57.23-66.67,57.23c-24.78,0-62.25-11.21-66.67-54.28h48.68
			c2.06,15.05,16.52,15.05,18.59,15.05c8.26,0,17.11-4.72,17.11-12.69c0-11.21-12.1-12.68-43.37-24.78
			c-21.24-6.79-38.94-20.65-38.94-42.78c0-33.93,29.5-55.46,63.43-55.46c21.54,0,58.71,8.56,62.84,51.63H1646.81z"/>
	</g>
</g>
<g id="Fontes" class="st4">
	<g class="st5">
		
			<text transform="matrix(1 0 0 1 -9.6823 -170.7059)" class="st2" style="font-family:'ITCAvantGardeStd-Bold'; font-size:190px; letter-spacing:-3;">Rails</text>
		<text transform="matrix(1 0 0 1 -2.051 -61.1722)" class="st3" style="font-family:'Roboto-Medium'; font-size:110px;">GraphQL</text>
	</g>
</g>
</svg>
